<svg width="20" height="20" viewBox="0 0 20 20" fill="none" xmlns="http://www.w3.org/2000/svg">
<path fill-rule="evenodd" clip-rule="evenodd" d="M3.75024 9.375L8.12524 11.875L10.0002 10.9375L11.8752 11.875L16.2502 9.375V1.875C16.2502 1.37772 16.0527 0.900805 15.7011 0.549175C15.3494 0.197544 14.8725 0 14.3752 0L5.62524 0C5.12796 0 4.65105 0.197544 4.29942 0.549175C3.94779 0.900805 3.75024 1.37772 3.75024 1.875V9.375ZM2.50024 3.91625L1.32399 4.54375C0.924095 4.75698 0.589679 5.0749 0.356512 5.46351C0.123345 5.85212 0.000198832 6.29681 0.000244153 6.75V7.14125L2.50024 8.6075V3.91625ZM17.5002 8.6075L20.0002 7.14125V6.75C20.0003 6.29681 19.8771 5.85212 19.644 5.46351C19.4108 5.0749 19.0764 4.75698 18.6765 4.54375L17.5002 3.91625V8.6075ZM12.884 12.7625L20.0002 8.59125V16.7162L12.884 12.7625ZM19.9265 18.105L10.0002 12.59L0.0739942 18.105C0.208999 18.6463 0.521171 19.1269 0.960831 19.4703C1.40049 19.8137 1.94237 20.0001 2.50024 20H17.5002C18.0581 20.0001 18.6 19.8137 19.0397 19.4703C19.4793 19.1269 19.7915 18.6463 19.9265 18.105ZM7.11649 12.7625L0.000244153 16.715V8.59L7.11649 12.7625ZM10.0002 2.4775C12.0802 0.38625 17.2815 4.045 10.0002 8.75C2.71899 4.045 7.92024 0.3875 10.0002 2.4775Z" fill="white"/>
</svg>
