<svg width="20" height="20" viewBox="0 0 20 20" fill="none" xmlns="http://www.w3.org/2000/svg">
<path d="M0.000244141 1.4325C0.000244141 0.64125 0.657744 0 1.46899 0H18.5315C19.3427 0 20.0002 0.64125 20.0002 1.4325V18.5675C20.0002 19.3587 19.3427 20 18.5315 20H1.46899C0.657744 20 0.000244141 19.3587 0.000244141 18.5675V1.4325ZM6.17899 16.7425V7.71125H3.17774V16.7425H6.17899ZM4.67899 6.4775C5.72524 6.4775 6.37649 5.785 6.37649 4.9175C6.35774 4.03125 5.72649 3.3575 4.69899 3.3575C3.67149 3.3575 3.00024 4.0325 3.00024 4.9175C3.00024 5.785 3.65149 6.4775 4.65899 6.4775H4.67899ZM10.814 16.7425V11.6988C10.814 11.4288 10.834 11.1587 10.914 10.9662C11.1302 10.4275 11.624 9.86875 12.454 9.86875C13.5402 9.86875 13.974 10.6962 13.974 11.9113V16.7425H16.9752V11.5625C16.9752 8.7875 15.4952 7.4975 13.5202 7.4975C11.9277 7.4975 11.214 8.3725 10.814 8.98875V9.02H10.794L10.814 8.98875V7.71125H7.81399C7.85149 8.55875 7.81399 16.7425 7.81399 16.7425H10.814Z" fill="white"/>
</svg>
