<svg width="11" height="7" viewBox="0 0 11 7" fill="none" xmlns="http://www.w3.org/2000/svg">
<path d="M1.44871 0.238037H4.78204C4.95885 0.238037 5.12842 0.308275 5.25345 0.433299C5.37847 0.558324 5.44871 0.727893 5.44871 0.904704C5.44871 1.08151 5.37847 1.25108 5.25345 1.37611C5.12842 1.50113 4.95885 1.57137 4.78204 1.57137H1.44871C1.2719 1.57137 1.10233 1.50113 0.977306 1.37611C0.852281 1.25108 0.782043 1.08151 0.782043 0.904704C0.782043 0.727893 0.852281 0.558324 0.977306 0.433299C1.10233 0.308275 1.2719 0.238037 1.44871 0.238037ZM6.11538 5.57137H9.44871C9.62552 5.57137 9.79509 5.64161 9.92011 5.76663C10.0451 5.89166 10.1154 6.06123 10.1154 6.23804C10.1154 6.41485 10.0451 6.58442 9.92011 6.70944C9.79509 6.83447 9.62552 6.9047 9.44871 6.9047H6.11538C5.93857 6.9047 5.769 6.83447 5.64397 6.70944C5.51895 6.58442 5.44871 6.41485 5.44871 6.23804C5.44871 6.06123 5.51895 5.89166 5.64397 5.76663C5.769 5.64161 5.93857 5.57137 6.11538 5.57137ZM1.44871 2.9047H9.44871C9.62552 2.9047 9.79509 2.97494 9.92011 3.09997C10.0451 3.22499 10.1154 3.39456 10.1154 3.57137C10.1154 3.74818 10.0451 3.91775 9.92011 4.04277C9.79509 4.1678 9.62552 4.23804 9.44871 4.23804H1.44871C1.2719 4.23804 1.10233 4.1678 0.977306 4.04277C0.852281 3.91775 0.782043 3.74818 0.782043 3.57137C0.782043 3.39456 0.852281 3.22499 0.977306 3.09997C1.10233 2.97494 1.2719 2.9047 1.44871 2.9047Z" fill="white"/>
</svg>
