<svg width="44" height="33" viewBox="0 0 44 33" fill="none" xmlns="http://www.w3.org/2000/svg">
<path d="M19.0579 23.6429C19.0579 28.6823 15.5877 32.5 10.307 32.5C5.02632 32.5 0.5 28.2241 0.5 20.5887C0.5 11.1207 7.59123 3.02709 16.7947 1.5V7.15025C11.514 8.21921 7.59123 12.0369 7.59123 16.4655C8.49649 15.8547 9.70351 15.3965 11.6649 15.3965C15.5877 15.3965 19.0579 18.298 19.0579 23.6429ZM43.5 23.6429C43.5 28.6823 39.8789 32.5 34.5982 32.5C29.4684 32.5 24.7912 28.2241 24.7912 20.5887C24.7912 11.1207 31.8825 3.02709 41.2368 1.5V7.15025C35.9561 8.21921 32.0333 12.0369 32.0333 16.3128C32.9386 15.702 34.2965 15.3965 36.107 15.3965C40.0298 15.3965 43.5 18.298 43.5 23.6429Z" fill="url(#paint0_linear_1_171)" stroke="url(#paint1_linear_1_171)"/>
<defs>
<linearGradient id="paint0_linear_1_171" x1="43.3287" y1="14.9836" x2="0.657137" y2="15.432" gradientUnits="userSpaceOnUse">
<stop stop-color="#7A87FB"/>
<stop offset="1" stop-color="#FFD49C"/>
</linearGradient>
<linearGradient id="paint1_linear_1_171" x1="0.500001" y1="2" x2="47" y2="33" gradientUnits="userSpaceOnUse">
<stop stop-color="white"/>
<stop offset="0.294339" stop-color="white" stop-opacity="0"/>
</linearGradient>
</defs>
</svg>
