<svg width="20" height="20" viewBox="0 0 20 20" fill="none" xmlns="http://www.w3.org/2000/svg">
<path d="M17.0783 2.90756C16.1575 1.98193 15.0606 1.24812 13.8519 0.748934C12.6431 0.249746 11.3466 -0.00482601 10.0379 6.92811e-05C4.55449 6.92811e-05 0.0856284 4.44755 0.0806058 9.90754C0.0806058 11.6563 0.540174 13.3575 1.40783 14.8638L0.000244141 20L5.279 18.6225C6.73867 19.4153 8.37512 19.8301 10.0379 19.8288H10.0429C15.5276 19.8288 19.9952 15.3813 20.0002 9.91629C20.0014 8.61386 19.7437 7.32409 19.242 6.12123C18.7403 4.91836 18.0058 3.82618 17.0783 2.90756ZM10.0379 18.1513C8.55521 18.1501 7.09997 17.753 5.82395 17.0013L5.52259 16.8213L2.391 17.6388L3.22726 14.5975L3.03138 14.2838C2.20241 12.9717 1.76399 11.4526 1.76694 9.90254C1.76694 5.37005 5.4799 1.67256 10.0429 1.67256C11.13 1.67062 12.2067 1.88291 13.211 2.29718C14.2152 2.71145 15.1272 3.31951 15.8943 4.08631C16.6639 4.85024 17.274 5.75823 17.6895 6.75795C18.105 7.75768 18.3176 8.82938 18.3152 9.91129C18.3101 14.46 14.5972 18.1513 10.0379 18.1513ZM14.5771 11.9838C14.3297 11.86 13.108 11.2613 12.8782 11.1763C12.6497 11.095 12.4827 11.0525 12.3194 11.3C12.1524 11.5463 11.6753 12.1075 11.5321 12.2688C11.389 12.435 11.2408 12.4538 10.9922 12.3313C10.7448 12.2063 9.94248 11.9463 8.99321 11.1C8.25238 10.4438 7.7564 9.63129 7.60823 9.38504C7.46508 9.13754 7.59442 9.00504 7.71873 8.88129C7.82797 8.77129 7.96609 8.59129 8.0904 8.44879C8.21596 8.30629 8.2574 8.20129 8.33902 8.03629C8.42063 7.86879 8.38171 7.72629 8.32018 7.60254C8.2574 7.47879 7.76142 6.25755 7.55172 5.76505C7.35082 5.2788 7.14615 5.3463 6.99296 5.34005C6.84982 5.3313 6.68281 5.3313 6.51581 5.3313C6.38971 5.3345 6.26563 5.36357 6.15134 5.41669C6.03704 5.46982 5.93499 5.54586 5.85157 5.64005C5.62305 5.88755 4.98392 6.4863 4.98392 7.70754C4.98392 8.92879 5.87543 10.1025 6.001 10.2688C6.12405 10.435 7.75137 12.9338 10.2489 14.0088C10.839 14.265 11.3036 14.4163 11.6665 14.5313C12.2629 14.7213 12.8016 14.6925 13.231 14.6313C13.7082 14.5588 14.7014 14.0313 14.9111 13.4525C15.117 12.8725 15.117 12.3775 15.0542 12.2738C14.9927 12.1688 14.8257 12.1075 14.5771 11.9838Z" fill="white"/>
</svg>
